<svg width="28" height="28" viewBox="0 0 28 28" fill="none" xmlns="http://www.w3.org/2000/svg">
<rect width="28" height="28" rx="14" fill="#F5F5F5"/>
<path d="M18.9072 13.0809C20.0697 12.9176 20.9647 11.9209 20.9672 10.7134C20.9672 9.52343 20.0997 8.53676 18.9622 8.3501" stroke="black" stroke-width="1.25" stroke-linecap="round" stroke-linejoin="round"/>
<path d="M20.4414 15.8755C21.5672 16.0438 22.3531 16.438 22.3531 17.2505C22.3531 17.8097 21.9831 18.173 21.3847 18.4013" stroke="black" stroke-width="1.25" stroke-linecap="round" stroke-linejoin="round"/>
<path fill-rule="evenodd" clip-rule="evenodd" d="M13.9063 16.2202C11.2279 16.2202 8.94043 16.626 8.94043 18.2469C8.94043 19.8669 11.2138 20.2844 13.9063 20.2844C16.5846 20.2844 18.8713 19.8827 18.8713 18.261C18.8713 16.6394 16.5988 16.2202 13.9063 16.2202Z" stroke="black" stroke-width="1.25" stroke-linecap="round" stroke-linejoin="round"/>
<path fill-rule="evenodd" clip-rule="evenodd" d="M13.9062 13.907C15.6637 13.907 17.0887 12.4828 17.0887 10.7245C17.0887 8.96699 15.6637 7.54199 13.9062 7.54199C12.1487 7.54199 10.7237 8.96699 10.7237 10.7245C10.717 12.4762 12.1312 13.9012 13.8828 13.907H13.9062Z" stroke="black" stroke-width="1.25" stroke-linecap="round" stroke-linejoin="round"/>
<path d="M8.90473 13.0809C7.74139 12.9176 6.84723 11.9209 6.84473 10.7134C6.84473 9.52343 7.71223 8.53676 8.84973 8.3501" stroke="black" stroke-width="1.25" stroke-linecap="round" stroke-linejoin="round"/>
<path d="M7.37065 15.8755C6.24482 16.0438 5.45898 16.438 5.45898 17.2505C5.45898 17.8097 5.82898 18.173 6.42732 18.4013" stroke="black" stroke-width="1.25" stroke-linecap="round" stroke-linejoin="round"/>
</svg>
