<svg width="65" height="66" viewBox="0 0 65 66" fill="none" xmlns="http://www.w3.org/2000/svg">
<path d="M48.75 4.85502C53.6907 7.70751 57.7934 11.8103 60.6459 16.7509C63.4984 21.6916 65 27.2961 65 33.001C65 38.706 63.4982 44.3105 60.6457 49.2511C57.7931 54.1917 53.6903 58.2945 48.7496 61.1469C43.8089 63.9993 38.2045 65.5009 32.4995 65.5008C26.7945 65.5008 21.1901 63.999 16.2495 61.1464C11.3089 58.2938 7.20619 54.1909 4.35381 49.2502C1.50143 44.3095 -0.000144916 38.705 1.04899e-08 33L0.0162504 31.947C0.19826 26.3342 1.83153 20.8644 4.75683 16.0707C7.68213 11.2771 11.7996 7.32324 16.7079 4.59464C21.6162 1.86603 27.1477 0.455806 32.7633 0.50144C38.3788 0.547073 43.8867 2.04701 48.75 4.85502ZM32.5 13.5C31.638 13.5 30.8114 13.8424 30.2019 14.4519C29.5924 15.0614 29.25 15.8881 29.25 16.75V33C29.25 33.862 29.5924 34.6886 30.2019 35.2981C30.8114 35.9076 31.638 36.25 32.5 36.25H43.875C44.737 36.25 45.5636 35.9076 46.1731 35.2981C46.7826 34.6886 47.125 33.862 47.125 33C47.125 32.1381 46.7826 31.3114 46.1731 30.7019C45.5636 30.0924 44.737 29.75 43.875 29.75H35.75V16.75C35.7499 15.954 35.4576 15.1857 34.9287 14.5908C34.3997 13.9959 33.6708 13.6159 32.8802 13.5228L32.5 13.5Z" fill="#AFAFAF"/>
</svg>
