<svg width="72" height="71" viewBox="0 0 72 71" fill="none" xmlns="http://www.w3.org/2000/svg">
<path d="M2.83426 36.18H27.4843M45.2843 36.18H68.8043M18.4541 17.6782V11.8699C18.4528 10.639 18.6946 9.42013 19.165 8.28272C19.6355 7.14531 20.3255 6.11181 21.1958 5.24146C22.0662 4.37111 23.0994 3.68088 24.2368 3.21045C25.3742 2.74003 26.5934 2.49869 27.8242 2.50001H44.9443C47.4294 2.50001 49.8126 3.48717 51.5698 5.24439C53.327 7.00161 54.3145 9.3848 54.3145 11.8699V17.9956M31.9643 30.66H40.8043C43.2785 30.66 45.2843 32.6657 45.2843 35.14V37.23C45.2843 39.7042 43.2785 41.71 40.8043 41.71H31.9643C29.49 41.71 27.4843 39.7042 27.4843 37.23V35.14C27.4843 32.6657 29.49 30.66 31.9643 30.66ZM34.4142 16.54C31.1197 16.4211 27.8213 16.4879 24.5343 16.74C17.7043 17.37 9.70438 19.3101 5.59438 25.3201C4.17236 27.4407 3.32479 29.8938 3.13442 32.4399C2.23442 42.9199 2.34442 44.9099 3.13442 53.3799C4.89442 72.2299 66.7343 72.2299 68.4943 53.3799C69.2843 44.9099 69.3943 42.9199 68.4943 32.4399C67.7343 23.6899 60.2346 19.18 52.3546 17.52C48.1146 16.63 43.8146 16.7199 39.5246 16.6499C37.8346 16.6299 36.1242 16.58 34.4142 16.54Z" stroke="#E95322" stroke-width="5" stroke-linecap="round" stroke-linejoin="round"/>
</svg>
