<svg width="65" height="66" viewBox="0 0 65 66" fill="none" xmlns="http://www.w3.org/2000/svg">
<path d="M32.5 0.5C26.0721 0.5 19.7886 2.40609 14.444 5.97724C9.09938 9.54838 4.93378 14.6242 2.47393 20.5628C0.0140816 26.5014 -0.629527 33.036 0.624493 39.3404C1.87851 45.6448 4.97384 51.4358 9.51904 55.981C14.0642 60.5262 19.8552 63.6215 26.1596 64.8755C32.464 66.1295 38.9986 65.4859 44.9372 63.0261C50.8758 60.5662 55.9516 56.4006 59.5228 51.056C63.0939 45.7114 65 39.4279 65 33C64.9909 24.3833 61.5639 16.122 55.4709 10.0291C49.378 3.93612 41.1167 0.509099 32.5 0.5ZM44.2688 41.2312C44.501 41.4635 44.6853 41.7393 44.811 42.0428C44.9367 42.3462 45.0014 42.6715 45.0014 43C45.0014 43.3285 44.9367 43.6538 44.811 43.9572C44.6853 44.2607 44.501 44.5365 44.2688 44.7687C44.0365 45.001 43.7607 45.1853 43.4572 45.311C43.1538 45.4367 42.8285 45.5014 42.5 45.5014C42.1715 45.5014 41.8462 45.4367 41.5428 45.311C41.2393 45.1853 40.9635 45.001 40.7313 44.7687L32.5 36.5344L24.2688 44.7687C24.0365 45.001 23.7607 45.1853 23.4573 45.311C23.1538 45.4367 22.8285 45.5014 22.5 45.5014C22.1715 45.5014 21.8463 45.4367 21.5428 45.311C21.2393 45.1853 20.9635 45.001 20.7313 44.7687C20.499 44.5365 20.3147 44.2607 20.189 43.9572C20.0633 43.6538 19.9986 43.3285 19.9986 43C19.9986 42.6715 20.0633 42.3462 20.189 42.0428C20.3147 41.7393 20.499 41.4635 20.7313 41.2312L28.9656 33L20.7313 24.7687C20.2622 24.2996 19.9986 23.6634 19.9986 23C19.9986 22.3366 20.2622 21.7003 20.7313 21.2312C21.2004 20.7621 21.8366 20.4986 22.5 20.4986C23.1634 20.4986 23.7997 20.7621 24.2688 21.2312L32.5 29.4656L40.7313 21.2312C40.9635 20.999 41.2393 20.8147 41.5428 20.689C41.8462 20.5633 42.1715 20.4986 42.5 20.4986C42.8285 20.4986 43.1538 20.5633 43.4572 20.689C43.7607 20.8147 44.0365 20.999 44.2688 21.2312C44.501 21.4635 44.6853 21.7393 44.811 22.0428C44.9367 22.3462 45.0014 22.6715 45.0014 23C45.0014 23.3285 44.9367 23.6538 44.811 23.9572C44.6853 24.2607 44.501 24.5365 44.2688 24.7687L36.0344 33L44.2688 41.2312Z" fill="#EB5757"/>
</svg>
