<svg width="32" height="32" viewBox="0 0 32 32" fill="none" xmlns="http://www.w3.org/2000/svg">
<rect width="32" height="32" rx="16" fill="#F5F5F5"/>
<path d="M15.3438 7C15.5046 7 15.6437 7.05876 15.7612 7.17627C15.8787 7.29378 15.9375 7.43294 15.9375 7.59375V14.125C15.9375 14.4528 15.8757 14.759 15.752 15.0435C15.6283 15.328 15.4582 15.5785 15.2417 15.7949C15.0252 16.0114 14.7716 16.1815 14.481 16.3052C14.1903 16.4289 13.8841 16.4938 13.5625 16.5V25.4062C13.5625 25.5671 13.5037 25.7062 13.3862 25.8237C13.2687 25.9412 13.1296 26 12.9688 26C12.8079 26 12.6688 25.9412 12.5513 25.8237C12.4338 25.7062 12.375 25.5671 12.375 25.4062V16.5C12.0472 16.5 11.741 16.4382 11.4565 16.3145C11.172 16.1908 10.9215 16.0207 10.7051 15.8042C10.4886 15.5877 10.3185 15.3372 10.1948 15.0527C10.0711 14.7682 10.0062 14.459 10 14.125V7.59375C10 7.43294 10.0588 7.29378 10.1763 7.17627C10.2938 7.05876 10.4329 7 10.5938 7C10.7546 7 10.8937 7.05876 11.0112 7.17627C11.1287 7.29378 11.1875 7.43294 11.1875 7.59375V14.125C11.1875 14.292 11.2184 14.4466 11.2803 14.5889C11.3421 14.7311 11.4256 14.8548 11.5308 14.96C11.6359 15.0651 11.7627 15.1517 11.9111 15.2197C12.0596 15.2878 12.2142 15.3187 12.375 15.3125V7.59375C12.375 7.43294 12.4338 7.29378 12.5513 7.17627C12.6688 7.05876 12.8079 7 12.9688 7C13.1296 7 13.2687 7.05876 13.3862 7.17627C13.5037 7.29378 13.5625 7.43294 13.5625 7.59375V15.3125C13.7295 15.3125 13.8841 15.2816 14.0264 15.2197C14.1686 15.1579 14.2923 15.0744 14.3975 14.9692C14.5026 14.8641 14.5892 14.7373 14.6572 14.5889C14.7253 14.4404 14.7562 14.2858 14.75 14.125V7.59375C14.75 7.43294 14.8088 7.29378 14.9263 7.17627C15.0438 7.05876 15.1829 7 15.3438 7ZM21.875 7V25.4062C21.875 25.5671 21.8162 25.7062 21.6987 25.8237C21.5812 25.9412 21.4421 26 21.2812 26C21.1204 26 20.9813 25.9412 20.8638 25.8237C20.7463 25.7062 20.6875 25.5671 20.6875 25.4062V20.0625C20.4587 20.0625 20.2113 20.0656 19.9453 20.0718C19.6794 20.078 19.4165 20.0749 19.1567 20.0625C18.897 20.0501 18.6434 20.013 18.396 19.9512C18.1486 19.8893 17.9321 19.7935 17.7466 19.6636C17.561 19.5337 17.4095 19.3574 17.292 19.1348C17.1745 18.9121 17.1188 18.6276 17.125 18.2812V11.1562C17.125 10.5811 17.2332 10.043 17.4497 9.54199C17.6662 9.04102 17.9631 8.60189 18.3403 8.22461C18.7176 7.84733 19.1567 7.55046 19.6577 7.33398C20.1587 7.11751 20.6999 7.00618 21.2812 7H21.875ZM20.6875 8.24316C20.3411 8.3112 20.0257 8.4349 19.7412 8.61426C19.4567 8.79362 19.2062 9.01628 18.9897 9.28223C18.7733 9.54818 18.6063 9.83577 18.4888 10.145C18.3713 10.4543 18.3125 10.7913 18.3125 11.1562V18.2812C18.3125 18.4421 18.3713 18.5812 18.4888 18.6987C18.6063 18.8162 18.7454 18.875 18.9062 18.875H20.6875V8.24316Z" fill="#222222"/>
</svg>
