<svg width="28" height="28" viewBox="0 0 28 28" fill="none" xmlns="http://www.w3.org/2000/svg">
<rect width="28" height="28" rx="14" fill="#F5F5F5"/>
<path d="M18.4765 20.5225L20.8432 18.1925L20.3215 17.67L18.4765 19.4892L17.6807 18.6767L17.1582 19.2034L18.4765 20.5225ZM9.64232 11.2759H18.3607V10.4425H9.64148L9.64232 11.2759ZM19.0007 22.43C18.0723 22.43 17.2848 22.1064 16.6382 21.4592C15.9909 20.8125 15.6673 20.025 15.6673 19.0967C15.6673 18.1684 15.9909 17.3806 16.6382 16.7334C17.2854 16.0862 18.0729 15.7628 19.0007 15.7634C19.9284 15.7639 20.7162 16.0873 21.364 16.7334C22.0118 17.3795 22.3351 18.1673 22.334 19.0967C22.334 20.0245 22.0107 20.812 21.364 21.4592C20.7162 22.1064 19.9284 22.43 19.0007 22.43ZM7.33398 21.3075V8.68004C7.33398 8.30671 7.4651 7.98893 7.72732 7.72671C7.98954 7.46449 8.30732 7.33337 8.68065 7.33337H19.3215C19.6937 7.33337 20.0112 7.46449 20.274 7.72671C20.5362 7.98893 20.6673 8.30671 20.6673 8.68004V13.6334C20.5318 13.5834 20.3973 13.5406 20.264 13.505C20.1301 13.4695 19.9868 13.4417 19.834 13.4217V8.68004C19.834 8.55171 19.7807 8.43393 19.674 8.32671C19.5673 8.21949 19.4495 8.16615 19.3207 8.16671H8.68065C8.55232 8.16671 8.43454 8.22004 8.32732 8.32671C8.2201 8.43337 8.16676 8.55115 8.16732 8.68004V19.875H13.454C13.4918 20.1028 13.5407 20.3256 13.6007 20.5434C13.6612 20.7612 13.7454 20.9689 13.8532 21.1667L13.8248 21.195L12.879 20.5067L11.7573 21.3075L10.6357 20.5067L9.51398 21.3075L8.39148 20.5067L7.33398 21.3075ZM9.64232 17.5575H13.5665C13.5976 17.4048 13.6359 17.2617 13.6815 17.1284C13.727 16.995 13.7804 16.8603 13.8415 16.7242H9.64232V17.5575ZM9.64232 14.4167H15.734C16.0062 14.2017 16.2979 14.0225 16.609 13.8792C16.9201 13.7353 17.2526 13.6367 17.6065 13.5834H9.64148L9.64232 14.4167Z" fill="#222222"/>
</svg>
