<svg width="28" height="28" viewBox="0 0 28 28" fill="none" xmlns="http://www.w3.org/2000/svg">
<rect width="28" height="28" rx="14" fill="#F5F5F5"/>
<path d="M20.5813 10.5437L16.2063 6.16875C16.1184 6.08082 15.9993 6.03136 15.875 6.03125H8.375C8.08492 6.03125 7.80672 6.14648 7.6016 6.3516C7.39648 6.55672 7.28125 6.83492 7.28125 7.125V20.875C7.28125 21.1651 7.39648 21.4433 7.6016 21.6484C7.80672 21.8535 8.08492 21.9688 8.375 21.9688H19.625C19.9151 21.9688 20.1933 21.8535 20.3984 21.6484C20.6035 21.4433 20.7188 21.1651 20.7188 20.875V10.875C20.7186 10.7507 20.6692 10.6316 20.5813 10.5437ZM16.3438 7.63125L19.1187 10.4062H16.3438V7.63125ZM19.625 21.0312H8.375C8.33356 21.0312 8.29382 21.0148 8.26451 20.9855C8.23521 20.9562 8.21875 20.9164 8.21875 20.875V7.125C8.21875 7.08356 8.23521 7.04382 8.26451 7.01451C8.29382 6.98521 8.33356 6.96875 8.375 6.96875H15.4062V10.875C15.4062 10.9993 15.4556 11.1185 15.5435 11.2065C15.6315 11.2944 15.7507 11.3438 15.875 11.3438H19.7812V20.875C19.7812 20.9164 19.7648 20.9562 19.7355 20.9855C19.7062 21.0148 19.6664 21.0312 19.625 21.0312ZM16.9688 14.625C16.9688 14.7493 16.9194 14.8685 16.8315 14.9565C16.7435 15.0444 16.6243 15.0938 16.5 15.0938H11.5C11.3757 15.0938 11.2565 15.0444 11.1685 14.9565C11.0806 14.8685 11.0312 14.7493 11.0312 14.625C11.0312 14.5007 11.0806 14.3815 11.1685 14.2935C11.2565 14.2056 11.3757 14.1562 11.5 14.1562H16.5C16.6243 14.1562 16.7435 14.2056 16.8315 14.2935C16.9194 14.3815 16.9688 14.5007 16.9688 14.625ZM16.9688 17.125C16.9688 17.2493 16.9194 17.3685 16.8315 17.4565C16.7435 17.5444 16.6243 17.5938 16.5 17.5938H11.5C11.3757 17.5938 11.2565 17.5444 11.1685 17.4565C11.0806 17.3685 11.0312 17.2493 11.0312 17.125C11.0312 17.0007 11.0806 16.8815 11.1685 16.7935C11.2565 16.7056 11.3757 16.6562 11.5 16.6562H16.5C16.6243 16.6562 16.7435 16.7056 16.8315 16.7935C16.9194 16.8815 16.9688 17.0007 16.9688 17.125Z" fill="black"/>
</svg>
