<svg width="32" height="32" viewBox="0 0 32 32" fill="none" xmlns="http://www.w3.org/2000/svg">
<g clip-path="url(#clip0_5882_11232)">
<path d="M25.3333 0H6.66667C2.98477 0 0 2.98477 0 6.66667V25.3333C0 29.0152 2.98477 32 6.66667 32H25.3333C29.0152 32 32 29.0152 32 25.3333V6.66667C32 2.98477 29.0152 0 25.3333 0Z" fill="#D9D9D9"/>
<path d="M25.3333 0H6.66667C2.98477 0 0 2.98477 0 6.66667V25.3333C0 29.0152 2.98477 32 6.66667 32H25.3333C29.0152 32 32 29.0152 32 25.3333V6.66667C32 2.98477 29.0152 0 25.3333 0Z" fill="url(#paint0_linear_5882_11232)"/>
<path fill-rule="evenodd" clip-rule="evenodd" d="M23.9876 6.66602C25.296 6.66769 26.3548 7.72469 26.3531 9.02665L26.3559 22.971C26.352 24.2724 25.2926 25.326 23.9848 25.3299C22.677 25.326 21.6176 24.2724 21.6137 22.971V14.7232L20.6403 15.6919C19.7126 16.6095 18.2144 16.6095 17.2867 15.6919C16.3647 14.7688 16.3647 13.2774 17.2867 12.3543L22.3103 7.35532C22.7552 6.91319 23.3586 6.66491 23.9876 6.66602Z" fill="white"/>
<path fill-rule="evenodd" clip-rule="evenodd" d="M5.3335 9.02939C5.33071 7.72747 6.389 6.66936 7.69735 6.66602C8.32808 6.66436 8.9337 6.91375 9.37968 7.3581L14.4032 12.3571C15.3258 13.2802 15.3258 14.7715 14.4032 15.6947C13.4755 16.6123 11.9768 16.6123 11.0492 15.6947L10.0763 14.7266V22.9737C10.0724 24.2751 9.01296 25.3288 7.70517 25.3327C6.39737 25.3294 5.33741 24.2751 5.3335 22.9737V9.02939Z" fill="#FABF00"/>
</g>
<defs>
<linearGradient id="paint0_linear_5882_11232" x1="1.76479" y1="29.2602" x2="4.64863" y2="-6.00398" gradientUnits="userSpaceOnUse">
<stop stop-color="#0092A1"/>
<stop offset="1" stop-color="#009C4D"/>
</linearGradient>
<clipPath id="clip0_5882_11232">
<rect width="32" height="32" fill="white"/>
</clipPath>
</defs>
</svg>
