<svg width="24" height="24" viewBox="0 0 24 24" fill="none" xmlns="http://www.w3.org/2000/svg">
<mask id="mask0_1631_2648" style="mask-type:luminance" maskUnits="userSpaceOnUse" x="0" y="4" width="24" height="15">
<path d="M23.625 4.87524H0.375V18.8252H23.625V4.87524Z" fill="white"/>
</mask>
<g mask="url(#mask0_1631_2648)">
<path d="M17.4443 7.9482C17.5488 8.00911 17.6356 8.0963 17.696 8.20092C17.7562 8.30555 17.7876 8.42436 17.7872 8.54502V14.5642C17.7872 14.6858 17.7553 14.8051 17.6947 14.9102C17.6339 15.0155 17.5464 15.1027 17.4409 15.1631L12.3261 18.1029C12.2212 18.1629 12.1024 18.1945 11.9814 18.1945C11.8605 18.1945 11.7417 18.1629 11.6368 18.1029L10.1535 17.2749L12.6567 15.8055C12.8711 15.6816 13.0038 15.3977 13.0038 15.1508V7.96238C13.0038 7.71639 12.8725 7.43367 12.6602 7.30998L10.1426 5.81454L11.6347 4.96987C11.7404 4.90779 11.8607 4.87524 11.9832 4.87524C12.1056 4.87524 12.2259 4.90779 12.3316 4.96987L17.4443 7.9482Z" fill="#2DC84D"/>
<path d="M23.2587 7.9482C23.3625 8.00958 23.4485 8.09676 23.5081 8.20139C23.5678 8.30601 23.5991 8.42459 23.5989 8.54502V14.5642C23.5991 14.6858 23.5672 14.8051 23.5064 14.9102C23.4456 15.0155 23.358 15.1027 23.2526 15.1631L18.1378 18.1029C18.0329 18.1629 17.9141 18.1945 17.7932 18.1945C17.6722 18.1945 17.5534 18.1629 17.4485 18.1029L15.9652 17.2749L18.4685 15.8055C18.6828 15.6816 18.8148 15.3977 18.8148 15.1508V7.96238C18.8148 7.71639 18.6842 7.43367 18.4746 7.30998L15.957 5.81454L17.4499 4.96987C17.5555 4.90779 17.6758 4.87524 17.7983 4.87524C17.9208 4.87524 18.041 4.90779 18.1466 4.96987L23.2587 7.9482Z" fill="#C5CFDA"/>
<path fill-rule="evenodd" clip-rule="evenodd" d="M11.9695 14.584C11.9695 14.7053 11.9375 14.8246 11.8767 14.9297C11.8159 15.0348 11.7284 15.1222 11.6232 15.1829L6.52811 18.1054C6.42312 18.1656 6.30419 18.1973 6.18315 18.1973C6.06211 18.1973 5.94317 18.1656 5.83815 18.1054L0.721339 15.1659C0.615914 15.1055 0.52836 15.0181 0.46754 14.913C0.406721 14.8079 0.374797 14.6884 0.375001 14.567V8.54758C0.374806 8.42715 0.40609 8.3088 0.465758 8.20418C0.525427 8.09955 0.611415 8.01213 0.715215 7.95099L5.83203 4.96987C5.93768 4.90779 6.05793 4.87524 6.18043 4.87524C6.30291 4.87524 6.42316 4.90779 6.52876 4.96987L11.6293 7.94401C11.7333 8.00516 11.8194 8.09235 11.8791 8.1972C11.9388 8.30183 11.97 8.4204 11.9695 8.54084V14.584Z" fill="#4C12A1"/>
</g>
</svg>
