<svg width="12" height="19" viewBox="0 0 12 19" fill="none" xmlns="http://www.w3.org/2000/svg">
<path d="M5.34375 0C5.50456 0 5.64372 0.0587565 5.76123 0.17627C5.87874 0.293783 5.9375 0.432943 5.9375 0.59375V7.125C5.9375 7.4528 5.87565 7.75895 5.75195 8.04346C5.62826 8.32796 5.45817 8.57845 5.2417 8.79492C5.02523 9.01139 4.77165 9.18148 4.48096 9.30518C4.19027 9.42887 3.88411 9.49382 3.5625 9.5V18.4062C3.5625 18.5671 3.50374 18.7062 3.38623 18.8237C3.26872 18.9412 3.12956 19 2.96875 19C2.80794 19 2.66878 18.9412 2.55127 18.8237C2.43376 18.7062 2.375 18.5671 2.375 18.4062V9.5C2.0472 9.5 1.74105 9.43815 1.45654 9.31445C1.17204 9.19075 0.921549 9.02067 0.705078 8.8042C0.488607 8.58773 0.318522 8.33724 0.194824 8.05273C0.0711263 7.76823 0.0061849 7.45898 0 7.125V0.59375C0 0.432943 0.0587565 0.293783 0.17627 0.17627C0.293783 0.0587565 0.432943 0 0.59375 0C0.754557 0 0.893717 0.0587565 1.01123 0.17627C1.12874 0.293783 1.1875 0.432943 1.1875 0.59375V7.125C1.1875 7.29199 1.21842 7.44661 1.28027 7.58887C1.34212 7.73112 1.42562 7.85482 1.53076 7.95996C1.6359 8.0651 1.7627 8.15169 1.91113 8.21973C2.05957 8.28776 2.21419 8.31868 2.375 8.3125V0.59375C2.375 0.432943 2.43376 0.293783 2.55127 0.17627C2.66878 0.0587565 2.80794 0 2.96875 0C3.12956 0 3.26872 0.0587565 3.38623 0.17627C3.50374 0.293783 3.5625 0.432943 3.5625 0.59375V8.3125C3.72949 8.3125 3.88411 8.28158 4.02637 8.21973C4.16862 8.15788 4.29232 8.07438 4.39746 7.96924C4.5026 7.8641 4.58919 7.7373 4.65723 7.58887C4.72526 7.44043 4.75619 7.28581 4.75 7.125V0.59375C4.75 0.432943 4.80876 0.293783 4.92627 0.17627C5.04378 0.0587565 5.18294 0 5.34375 0ZM11.875 0V18.4062C11.875 18.5671 11.8162 18.7062 11.6987 18.8237C11.5812 18.9412 11.4421 19 11.2812 19C11.1204 19 10.9813 18.9412 10.8638 18.8237C10.7463 18.7062 10.6875 18.5671 10.6875 18.4062V13.0625C10.4587 13.0625 10.2113 13.0656 9.94531 13.0718C9.67936 13.078 9.4165 13.0749 9.15674 13.0625C8.89697 13.0501 8.64339 13.013 8.396 12.9512C8.1486 12.8893 7.93213 12.7935 7.74658 12.6636C7.56104 12.5337 7.40951 12.3574 7.29199 12.1348C7.17448 11.9121 7.11881 11.6276 7.125 11.2812V4.15625C7.125 3.58105 7.23324 3.04297 7.44971 2.54199C7.66618 2.04102 7.96305 1.60189 8.34033 1.22461C8.71761 0.847331 9.15674 0.550456 9.65771 0.333984C10.1587 0.117513 10.6999 0.0061849 11.2812 0H11.875ZM10.6875 1.24316C10.3411 1.3112 10.0257 1.4349 9.74121 1.61426C9.45671 1.79362 9.20622 2.01628 8.98975 2.28223C8.77327 2.54818 8.60628 2.83577 8.48877 3.14502C8.37126 3.45426 8.3125 3.79134 8.3125 4.15625V11.2812C8.3125 11.4421 8.37126 11.5812 8.48877 11.6987C8.60628 11.8162 8.74544 11.875 8.90625 11.875H10.6875V1.24316Z" fill="#222222"/>
</svg>
