<svg width="28" height="28" viewBox="0 0 28 28" fill="none" xmlns="http://www.w3.org/2000/svg">
<rect width="28" height="28" rx="14" fill="#F5F5F5"/>
<path d="M17.9842 22.1909C19.4406 22.1909 20.4035 21.7974 21.257 20.8431C21.3242 20.7763 21.3828 20.7009 21.4499 20.6338C21.952 20.0731 22.1863 19.5206 22.1863 18.9934C22.1863 18.3906 21.8349 17.8299 21.0899 17.3106L18.6542 15.6199C17.9006 15.1009 17.0217 15.0424 16.3185 15.737L15.6742 16.3817C15.4813 16.5742 15.3142 16.5827 15.1217 16.4652C14.6781 16.1806 13.7656 15.3856 13.146 14.7663C12.4931 14.1217 11.857 13.402 11.5306 12.8745C11.4135 12.6817 11.4303 12.5227 11.6228 12.3302L12.2588 11.6856C12.962 10.9827 12.9035 10.0952 12.3845 9.35059L10.6853 6.91488C10.1745 6.16952 9.61383 5.8263 9.01098 5.81809C8.48383 5.80952 7.93133 6.05238 7.37062 6.55452C7.29526 6.62166 7.22812 6.68023 7.15276 6.7388C6.20705 7.59238 5.81348 8.55523 5.81348 10.0031C5.81348 12.3974 7.28669 15.3102 9.99062 18.0138C12.6774 20.7009 15.5988 22.1909 17.9842 22.1909ZM17.9928 20.9017C15.8581 20.9434 13.1213 19.3031 10.9531 17.1434C8.76848 14.967 7.0524 12.1377 7.09419 10.0034C7.11098 9.08238 7.42919 8.28738 8.09062 7.71809C8.14062 7.66809 8.19062 7.62595 8.24919 7.58416C8.49205 7.3663 8.76848 7.24952 9.00276 7.24952C9.25383 7.24952 9.47133 7.3413 9.63062 7.59238L11.2545 10.0281C11.4303 10.2877 11.447 10.5809 11.1874 10.8402L10.451 11.577C9.8649 12.1545 9.91526 12.8577 10.3338 13.4184C10.8106 14.0631 11.6395 15.0006 12.2756 15.6367C12.9203 16.2813 13.9328 17.1852 14.5774 17.6706C15.1381 18.0892 15.8499 18.1313 16.4274 17.5534L17.1638 16.817C17.4235 16.5574 17.7081 16.5742 17.9674 16.7417L20.4031 18.3656C20.6545 18.5327 20.7549 18.742 20.7549 18.9934C20.7549 19.2363 20.6378 19.5042 20.412 19.7549C20.3728 19.81 20.3308 19.8631 20.2863 19.9142C19.7088 20.567 18.9135 20.8849 17.9928 20.9017Z" fill="black"/>
</svg>
