<svg width="20" height="20" viewBox="0 0 20 20" fill="none" xmlns="http://www.w3.org/2000/svg">
<path d="M6.31061 18.0303H2.70455C2.46545 18.0303 2.23615 17.9353 2.06708 17.7663C1.89801 17.5972 1.80303 17.3679 1.80303 17.1288V13.5227C1.80303 13.2836 1.70805 13.0543 1.53899 12.8853C1.36992 12.7162 1.14061 12.6212 0.901515 12.6212C0.662415 12.6212 0.433115 12.7162 0.264045 12.8853C0.0949836 13.0543 0 13.2836 0 13.5227V17.1288C0 17.846 0.284942 18.534 0.792143 19.0412C1.29934 19.5484 1.98725 19.8333 2.70455 19.8333H6.31061C6.54971 19.8333 6.77901 19.7383 6.94808 19.5693C7.11714 19.4002 7.21212 19.1709 7.21212 18.9318C7.21212 18.6927 7.11714 18.4634 6.94808 18.2944C6.77901 18.1253 6.54971 18.0303 6.31061 18.0303ZM18.9318 12.6212C18.6927 12.6212 18.4634 12.7162 18.2944 12.8853C18.1253 13.0543 18.0303 13.2836 18.0303 13.5227V17.1288C18.0303 17.3679 17.9353 17.5972 17.7663 17.7663C17.5972 17.9353 17.3679 18.0303 17.1288 18.0303H13.5227C13.2836 18.0303 13.0543 18.1253 12.8853 18.2944C12.7162 18.4634 12.6212 18.6927 12.6212 18.9318C12.6212 19.1709 12.7162 19.4002 12.8853 19.5693C13.0543 19.7383 13.2836 19.8333 13.5227 19.8333H17.1288C17.846 19.8333 18.534 19.5484 19.0412 19.0412C19.5484 18.534 19.8333 17.846 19.8333 17.1288V13.5227C19.8333 13.2836 19.7383 13.0543 19.5693 12.8853C19.4002 12.7162 19.1709 12.6212 18.9318 12.6212ZM17.1288 0H13.5227C13.2836 0 13.0543 0.0949836 12.8853 0.264045C12.7162 0.433115 12.6212 0.662415 12.6212 0.901515C12.6212 1.14061 12.7162 1.36992 12.8853 1.53899C13.0543 1.70805 13.2836 1.80303 13.5227 1.80303H17.1288C17.3679 1.80303 17.5972 1.89801 17.7663 2.06708C17.9353 2.23615 18.0303 2.46545 18.0303 2.70455V6.31061C18.0303 6.54971 18.1253 6.77901 18.2944 6.94808C18.4634 7.11714 18.6927 7.21212 18.9318 7.21212C19.1709 7.21212 19.4002 7.11714 19.5693 6.94808C19.7383 6.77901 19.8333 6.54971 19.8333 6.31061V2.70455C19.8333 1.98725 19.5484 1.29934 19.0412 0.792143C18.534 0.284942 17.846 0 17.1288 0ZM0.901515 7.21212C1.14061 7.21212 1.36992 7.11714 1.53899 6.94808C1.70805 6.77901 1.80303 6.54971 1.80303 6.31061V2.70455C1.80303 2.46545 1.89801 2.23615 2.06708 2.06708C2.23615 1.89801 2.46545 1.80303 2.70455 1.80303H6.31061C6.54971 1.80303 6.77901 1.70805 6.94808 1.53899C7.11714 1.36992 7.21212 1.14061 7.21212 0.901515C7.21212 0.662415 7.11714 0.433115 6.94808 0.264045C6.77901 0.0949836 6.54971 0 6.31061 0H2.70455C1.98725 0 1.29934 0.284942 0.792143 0.792143C0.284942 1.29934 0 1.98725 0 2.70455V6.31061C0 6.54971 0.0949836 6.77901 0.264045 6.94808C0.433115 7.11714 0.662415 7.21212 0.901515 7.21212ZM8.11364 3.60606H4.50758C4.26848 3.60606 4.03918 3.70104 3.87011 3.87011C3.70104 4.03918 3.60606 4.26848 3.60606 4.50758V8.11364C3.60606 8.35272 3.70104 8.58206 3.87011 8.7511C4.03918 8.92013 4.26848 9.01515 4.50758 9.01515H8.11364C8.35272 9.01515 8.58206 8.92013 8.7511 8.7511C8.92013 8.58206 9.01515 8.35272 9.01515 8.11364V4.50758C9.01515 4.26848 8.92013 4.03918 8.7511 3.87011C8.58206 3.70104 8.35272 3.60606 8.11364 3.60606ZM7.21212 7.21212H5.40909V5.40909H7.21212V7.21212ZM11.7197 9.01515H15.3258C15.5648 9.01515 15.7942 8.92013 15.9632 8.7511C16.1323 8.58206 16.2273 8.35272 16.2273 8.11364V4.50758C16.2273 4.26848 16.1323 4.03918 15.9632 3.87011C15.7942 3.70104 15.5648 3.60606 15.3258 3.60606H11.7197C11.4806 3.60606 11.2513 3.70104 11.0822 3.87011C10.9132 4.03918 10.8182 4.26848 10.8182 4.50758V8.11364C10.8182 8.35272 10.9132 8.58206 11.0822 8.7511C11.2513 8.92013 11.4806 9.01515 11.7197 9.01515ZM12.6212 5.40909H14.4242V7.21212H12.6212V5.40909ZM8.11364 10.8182H4.50758C4.26848 10.8182 4.03918 10.9132 3.87011 11.0822C3.70104 11.2513 3.60606 11.4806 3.60606 11.7197V15.3258C3.60606 15.5648 3.70104 15.7942 3.87011 15.9632C4.03918 16.1323 4.26848 16.2273 4.50758 16.2273H8.11364C8.35272 16.2273 8.58206 16.1323 8.7511 15.9632C8.92013 15.7942 9.01515 15.5648 9.01515 15.3258V11.7197C9.01515 11.4806 8.92013 11.2513 8.7511 11.0822C8.58206 10.9132 8.35272 10.8182 8.11364 10.8182ZM7.21212 14.4242H5.40909V12.6212H7.21212V14.4242ZM11.7197 13.5227C11.9588 13.5227 12.1881 13.4277 12.3572 13.2587C12.5262 13.0896 12.6212 12.8603 12.6212 12.6212C12.8603 12.6212 13.0896 12.5262 13.2587 12.3572C13.4277 12.1881 13.5227 11.9588 13.5227 11.7197C13.5227 11.4806 13.4277 11.2513 13.2587 11.0822C13.0896 10.9132 12.8603 10.8182 12.6212 10.8182H11.7197C11.4806 10.8182 11.2513 10.9132 11.0822 11.0822C10.9132 11.2513 10.8182 11.4806 10.8182 11.7197V12.6212C10.8182 12.8603 10.9132 13.0896 11.0822 13.2587C11.2513 13.4277 11.4806 13.5227 11.7197 13.5227ZM15.3258 10.8182C15.0867 10.8182 14.8573 10.9132 14.6883 11.0822C14.5193 11.2513 14.4242 11.4806 14.4242 11.7197V14.4242C14.1852 14.4242 13.9558 14.5193 13.7868 14.6883C13.6177 14.8573 13.5227 15.0867 13.5227 15.3258C13.5227 15.5648 13.6177 15.7942 13.7868 15.9632C13.9558 16.1323 14.1852 16.2273 14.4242 16.2273H15.3258C15.5648 16.2273 15.7942 16.1323 15.9632 15.9632C16.1323 15.7942 16.2273 15.5648 16.2273 15.3258V11.7197C16.2273 11.4806 16.1323 11.2513 15.9632 11.0822C15.7942 10.9132 15.5648 10.8182 15.3258 10.8182ZM11.7197 14.4242C11.5414 14.4242 11.3671 14.4771 11.2188 14.5761C11.0706 14.6752 10.955 14.816 10.8868 14.9807C10.8185 15.1455 10.8007 15.3267 10.8355 15.5016C10.8703 15.6765 10.9561 15.8372 11.0822 15.9632C11.2083 16.0893 11.3689 16.1752 11.5438 16.21C11.7187 16.2448 11.9 16.2269 12.0647 16.1587C12.2294 16.0904 12.3702 15.9748 12.4693 15.8266C12.5684 15.6783 12.6212 15.5041 12.6212 15.3258C12.6212 15.0867 12.5262 14.8573 12.3572 14.6883C12.1881 14.5193 11.9588 14.4242 11.7197 14.4242Z" fill="#FF7F38"/>
</svg>
