<svg width="24" height="24" viewBox="0 0 24 24" fill="none" xmlns="http://www.w3.org/2000/svg">
<path d="M8.72727 19.3636H5.45455C5.23755 19.3636 5.02944 19.2774 4.876 19.124C4.72257 18.9706 4.63636 18.7624 4.63636 18.5455V15.2727C4.63636 15.0557 4.55016 14.8476 4.39673 14.6942C4.24328 14.5408 4.03518 14.4545 3.81818 14.4545C3.60118 14.4545 3.39308 14.5408 3.23964 14.6942C3.0862 14.8476 3 15.0557 3 15.2727V18.5455C3 19.1964 3.2586 19.8208 3.71892 20.2811C4.17924 20.7414 4.80356 21 5.45455 21H8.72727C8.94427 21 9.15238 20.9138 9.30582 20.7604C9.45925 20.6069 9.54545 20.3988 9.54545 20.1818C9.54545 19.9648 9.45925 19.7567 9.30582 19.6033C9.15238 19.4499 8.94427 19.3636 8.72727 19.3636ZM20.1818 14.4545C19.9648 14.4545 19.7567 14.5408 19.6033 14.6942C19.4499 14.8476 19.3636 15.0557 19.3636 15.2727V18.5455C19.3636 18.7624 19.2774 18.9706 19.124 19.124C18.9706 19.2774 18.7624 19.3636 18.5455 19.3636H15.2727C15.0557 19.3636 14.8476 19.4499 14.6942 19.6033C14.5408 19.7567 14.4545 19.9648 14.4545 20.1818C14.4545 20.3988 14.5408 20.6069 14.6942 20.7604C14.8476 20.9138 15.0557 21 15.2727 21H18.5455C19.1964 21 19.8208 20.7414 20.2811 20.2811C20.7414 19.8208 21 19.1964 21 18.5455V15.2727C21 15.0557 20.9138 14.8476 20.7604 14.6942C20.6069 14.5408 20.3988 14.4545 20.1818 14.4545ZM18.5455 3H15.2727C15.0557 3 14.8476 3.0862 14.6942 3.23964C14.5408 3.39308 14.4545 3.60118 14.4545 3.81818C14.4545 4.03518 14.5408 4.24328 14.6942 4.39673C14.8476 4.55016 15.0557 4.63636 15.2727 4.63636H18.5455C18.7624 4.63636 18.9706 4.72257 19.124 4.876C19.2774 5.02944 19.3636 5.23755 19.3636 5.45455V8.72727C19.3636 8.94427 19.4499 9.15238 19.6033 9.30582C19.7567 9.45925 19.9648 9.54545 20.1818 9.54545C20.3988 9.54545 20.6069 9.45925 20.7604 9.30582C20.9138 9.15238 21 8.94427 21 8.72727V5.45455C21 4.80356 20.7414 4.17924 20.2811 3.71892C19.8208 3.2586 19.1964 3 18.5455 3ZM3.81818 9.54545C4.03518 9.54545 4.24328 9.45925 4.39673 9.30582C4.55016 9.15238 4.63636 8.94427 4.63636 8.72727V5.45455C4.63636 5.23755 4.72257 5.02944 4.876 4.876C5.02944 4.72257 5.23755 4.63636 5.45455 4.63636H8.72727C8.94427 4.63636 9.15238 4.55016 9.30582 4.39673C9.45925 4.24328 9.54545 4.03518 9.54545 3.81818C9.54545 3.60118 9.45925 3.39308 9.30582 3.23964C9.15238 3.0862 8.94427 3 8.72727 3H5.45455C4.80356 3 4.17924 3.2586 3.71892 3.71892C3.2586 4.17924 3 4.80356 3 5.45455V8.72727C3 8.94427 3.0862 9.15238 3.23964 9.30582C3.39308 9.45925 3.60118 9.54545 3.81818 9.54545ZM10.3636 6.27273H7.09091C6.87391 6.27273 6.66581 6.35893 6.51236 6.51236C6.35893 6.66581 6.27273 6.87391 6.27273 7.09091V10.3636C6.27273 10.5806 6.35893 10.7888 6.51236 10.9422C6.66581 11.0956 6.87391 11.1818 7.09091 11.1818H10.3636C10.5806 11.1818 10.7888 11.0956 10.9422 10.9422C11.0956 10.7888 11.1818 10.5806 11.1818 10.3636V7.09091C11.1818 6.87391 11.0956 6.66581 10.9422 6.51236C10.7888 6.35893 10.5806 6.27273 10.3636 6.27273ZM9.54545 9.54545H7.90909V7.90909H9.54545V9.54545ZM13.6364 11.1818H16.9091C17.1261 11.1818 17.3342 11.0956 17.4876 10.9422C17.641 10.7888 17.7273 10.5806 17.7273 10.3636V7.09091C17.7273 6.87391 17.641 6.66581 17.4876 6.51236C17.3342 6.35893 17.1261 6.27273 16.9091 6.27273H13.6364C13.4194 6.27273 13.2112 6.35893 13.0578 6.51236C12.9044 6.66581 12.8182 6.87391 12.8182 7.09091V10.3636C12.8182 10.5806 12.9044 10.7888 13.0578 10.9422C13.2112 11.0956 13.4194 11.1818 13.6364 11.1818ZM14.4545 7.90909H16.0909V9.54545H14.4545V7.90909ZM10.3636 12.8182H7.09091C6.87391 12.8182 6.66581 12.9044 6.51236 13.0578C6.35893 13.2112 6.27273 13.4194 6.27273 13.6364V16.9091C6.27273 17.1261 6.35893 17.3342 6.51236 17.4876C6.66581 17.641 6.87391 17.7273 7.09091 17.7273H10.3636C10.5806 17.7273 10.7888 17.641 10.9422 17.4876C11.0956 17.3342 11.1818 17.1261 11.1818 16.9091V13.6364C11.1818 13.4194 11.0956 13.2112 10.9422 13.0578C10.7888 12.9044 10.5806 12.8182 10.3636 12.8182ZM9.54545 16.0909H7.90909V14.4545H9.54545V16.0909ZM13.6364 15.2727C13.8533 15.2727 14.0615 15.1865 14.2149 15.0331C14.3683 14.8797 14.4545 14.6715 14.4545 14.4545C14.6715 14.4545 14.8797 14.3683 15.0331 14.2149C15.1865 14.0615 15.2727 13.8533 15.2727 13.6364C15.2727 13.4194 15.1865 13.2112 15.0331 13.0578C14.8797 12.9044 14.6715 12.8182 14.4545 12.8182H13.6364C13.4194 12.8182 13.2112 12.9044 13.0578 13.0578C12.9044 13.2112 12.8182 13.4194 12.8182 13.6364V14.4545C12.8182 14.6715 12.9044 14.8797 13.0578 15.0331C13.2112 15.1865 13.4194 15.2727 13.6364 15.2727ZM16.9091 12.8182C16.6921 12.8182 16.484 12.9044 16.3306 13.0578C16.1771 13.2112 16.0909 13.4194 16.0909 13.6364V16.0909C15.8739 16.0909 15.6658 16.1771 15.5124 16.3306C15.359 16.484 15.2727 16.6921 15.2727 16.9091C15.2727 17.1261 15.359 17.3342 15.5124 17.4876C15.6658 17.641 15.8739 17.7273 16.0909 17.7273H16.9091C17.1261 17.7273 17.3342 17.641 17.4876 17.4876C17.641 17.3342 17.7273 17.1261 17.7273 16.9091V13.6364C17.7273 13.4194 17.641 13.2112 17.4876 13.0578C17.3342 12.9044 17.1261 12.8182 16.9091 12.8182ZM13.6364 16.0909C13.4745 16.0909 13.3164 16.1389 13.1818 16.2288C13.0473 16.3187 12.9424 16.4465 12.8804 16.596C12.8185 16.7455 12.8023 16.91 12.8339 17.0687C12.8655 17.2274 12.9434 17.3732 13.0578 17.4876C13.1722 17.6021 13.318 17.68 13.4767 17.7116C13.6355 17.7431 13.8 17.7269 13.9495 17.665C14.099 17.6031 14.2268 17.4982 14.3167 17.3637C14.4066 17.2291 14.4545 17.0709 14.4545 16.9091C14.4545 16.6921 14.3683 16.484 14.2149 16.3306C14.0615 16.1771 13.8533 16.0909 13.6364 16.0909Z" fill="#222222"/>
</svg>
