<svg width="28" height="28" viewBox="0 0 28 28" fill="none" xmlns="http://www.w3.org/2000/svg">
<rect width="28" height="28" rx="14" fill="#F5F5F5"/>
<path d="M12.5 22H10.5C8.84315 22 7.5 20.6569 7.5 19V9C7.5 7.34315 8.84315 6 10.5 6H17.5C19.1569 6 20.5 7.34315 20.5 9V11.5M17 10H10.5M14 13H10.5M12.5 16H10.5M15.5 16.25L16.6584 15.6708C17.5029 15.2485 18.4971 15.2485 19.3416 15.6708L20.5 16.25C20.5 16.25 20.5 18.075 20.5 19.0375C20.5 20 19.6103 20.6497 18 21.6667C16.3897 20.6497 15.5 19.7917 15.5 19.0375V16.25Z" stroke="black" stroke-linecap="round" stroke-linejoin="round"/>
</svg>
