<svg width="65" height="66" viewBox="0 0 65 66" fill="none" xmlns="http://www.w3.org/2000/svg">
<path fill-rule="evenodd" clip-rule="evenodd" d="M65 33C65 50.9497 50.4497 65.5 32.5 65.5C14.5503 65.5 0 50.9497 0 33C0 15.0503 14.5503 0.5 32.5 0.5C50.4497 0.5 65 15.0503 65 33ZM45.5975 23.1525C46.054 23.6095 46.3104 24.2291 46.3104 24.875C46.3104 25.5209 46.054 26.1405 45.5975 26.5975L29.3475 42.8475C28.8905 43.304 28.2709 43.5604 27.625 43.5604C26.9791 43.5604 26.3595 43.304 25.9025 42.8475L19.4025 36.3475C19.163 36.1243 18.9709 35.8552 18.8377 35.5562C18.7045 35.2573 18.6329 34.9345 18.6271 34.6072C18.6213 34.2799 18.6815 33.9548 18.8041 33.6513C18.9267 33.3478 19.1092 33.0721 19.3406 32.8406C19.5721 32.6092 19.8478 32.4267 20.1513 32.3041C20.4548 32.1815 20.7799 32.1213 21.1072 32.1271C21.4345 32.1329 21.7573 32.2045 22.0562 32.3377C22.3552 32.4709 22.6243 32.663 22.8475 32.9025L27.625 37.68L34.8887 30.4162L42.1525 23.1525C42.6095 22.696 43.2291 22.4396 43.875 22.4396C44.5209 22.4396 45.1405 22.696 45.5975 23.1525Z" fill="#4BBC5C"/>
</svg>
