<svg width="28" height="28" viewBox="0 0 28 28" fill="none" xmlns="http://www.w3.org/2000/svg">
<rect width="28" height="28" rx="14" fill="#F5F5F5"/>
<path d="M13.9988 8C15.2052 7.99996 16.3836 8.36359 17.3802 9.04344C18.3768 9.72328 19.1453 10.6878 19.5854 11.811C20.0256 12.9342 20.1169 14.1641 19.8475 15.34C19.578 16.5159 18.9604 17.5833 18.0751 18.4029C17.1898 19.2225 16.0781 19.7561 14.8849 19.9342C13.6917 20.1124 12.4726 19.9267 11.3865 19.4014C10.3005 18.8761 9.39802 18.0356 8.7969 16.9897C8.19578 15.9437 7.92393 14.7408 8.01682 13.538C8.02181 13.4725 8.01384 13.4066 7.99338 13.3441C7.97291 13.2817 7.94034 13.2239 7.89754 13.174C7.85473 13.1242 7.80252 13.0832 7.74389 13.0535C7.68525 13.0238 7.62135 13.006 7.55582 13.001C7.49029 12.996 7.42442 13.004 7.36197 13.0244C7.29952 13.0449 7.24171 13.0775 7.19184 13.1203C7.14198 13.1631 7.10103 13.2153 7.07135 13.2739C7.04166 13.3326 7.02381 13.3965 7.01882 13.462C6.89216 15.1028 7.34763 16.7357 8.30525 18.0741C9.26287 19.4124 10.6614 20.3706 12.2553 20.7803C13.8491 21.1901 15.5363 21.0251 17.0207 20.3145C18.505 19.6039 19.6915 18.3931 20.3719 16.8946C21.0522 15.3962 21.1829 13.7059 20.7409 12.1207C20.2989 10.5355 19.3125 9.15673 17.955 8.22646C16.5975 7.2962 14.9556 6.87396 13.3178 7.03389C11.6799 7.19383 10.1507 7.9257 8.99882 9.101V7.5C8.99882 7.36739 8.94614 7.24021 8.85237 7.14645C8.7586 7.05268 8.63143 7 8.49882 7C8.36621 7 8.23903 7.05268 8.14527 7.14645C8.0515 7.24021 7.99882 7.36739 7.99882 7.5V10.5C7.99882 10.6326 8.0515 10.7598 8.14527 10.8536C8.23903 10.9473 8.36621 11 8.49882 11H11.4988C11.6314 11 11.7586 10.9473 11.8524 10.8536C11.9461 10.7598 11.9988 10.6326 11.9988 10.5C11.9988 10.3674 11.9461 10.2402 11.8524 10.1464C11.7586 10.0527 11.6314 10 11.4988 10H9.52682C10.0889 9.36996 10.778 8.86602 11.5487 8.52132C12.3195 8.17661 13.1545 7.99895 13.9988 8ZM13.9988 10.5C13.9988 10.3674 13.9461 10.2402 13.8524 10.1464C13.7586 10.0527 13.6314 10 13.4988 10C13.3662 10 13.239 10.0527 13.1453 10.1464C13.0515 10.2402 12.9988 10.3674 12.9988 10.5V14.5C12.9988 14.6326 13.0515 14.7598 13.1453 14.8536C13.239 14.9473 13.3662 15 13.4988 15H16.4988C16.6314 15 16.7586 14.9473 16.8524 14.8536C16.9461 14.7598 16.9988 14.6326 16.9988 14.5C16.9988 14.3674 16.9461 14.2402 16.8524 14.1464C16.7586 14.0527 16.6314 14 16.4988 14H13.9988V10.5Z" fill="#222222"/>
</svg>
