<svg width="32" height="32" viewBox="0 0 32 32" fill="none" xmlns="http://www.w3.org/2000/svg">
<rect width="32" height="32" rx="16" fill="#F5F5F5"/>
<path fill-rule="evenodd" clip-rule="evenodd" d="M15.262 26.134C15.262 26.134 8 20.018 8 14C8 11.8783 8.84285 9.84344 10.3431 8.34315C11.8434 6.84285 13.8783 6 16 6C18.1217 6 20.1566 6.84285 21.6569 8.34315C23.1571 9.84344 24 11.8783 24 14C24 20.018 16.738 26.134 16.738 26.134C16.334 26.506 15.669 26.502 15.262 26.134ZM16 17.5C16.4596 17.5 16.9148 17.4095 17.3394 17.2336C17.764 17.0577 18.1499 16.7999 18.4749 16.4749C18.7999 16.1499 19.0577 15.764 19.2336 15.3394C19.4095 14.9148 19.5 14.4596 19.5 14C19.5 13.5404 19.4095 13.0852 19.2336 12.6606C19.0577 12.236 18.7999 11.8501 18.4749 11.5251C18.1499 11.2001 17.764 10.9423 17.3394 10.7664C16.9148 10.5905 16.4596 10.5 16 10.5C15.0717 10.5 14.1815 10.8687 13.5251 11.5251C12.8687 12.1815 12.5 13.0717 12.5 14C12.5 14.9283 12.8687 15.8185 13.5251 16.4749C14.1815 17.1313 15.0717 17.5 16 17.5Z" fill="#FF7F38"/>
</svg>
