<svg width="24" height="24" viewBox="0 0 24 24" fill="none" xmlns="http://www.w3.org/2000/svg">
<path d="M11.9996 4.8001C13.4472 4.80005 14.8613 5.23641 16.0572 6.05222C17.2531 6.86803 18.1753 8.02541 18.7035 9.3733C19.2317 10.7212 19.3412 12.197 19.0179 13.6081C18.6946 15.0192 17.9534 16.3001 16.8911 17.2836C15.8288 18.267 14.4946 18.9074 13.0628 19.1212C11.631 19.3349 10.168 19.1121 8.8648 18.4818C7.56156 17.8514 6.4786 16.8429 5.75726 15.5877C5.03591 14.3325 4.70969 12.8891 4.82116 11.4457C4.82715 11.3671 4.81759 11.288 4.79303 11.2131C4.76847 11.1381 4.72939 11.0688 4.67802 11.0089C4.62665 10.9491 4.564 10.9 4.49364 10.8643C4.42328 10.8287 4.3466 10.8073 4.26796 10.8013C4.18932 10.7953 4.11028 10.8049 4.03534 10.8294C3.9604 10.854 3.89103 10.8931 3.83119 10.9444C3.77135 10.9958 3.72222 11.0585 3.68659 11.1288C3.65097 11.1992 3.62955 11.2759 3.62356 11.3545C3.47157 13.3234 4.01814 15.283 5.16728 16.889C6.31642 18.495 7.99467 19.6448 9.90728 20.1365C11.8199 20.6282 13.8446 20.4303 15.6258 19.5775C17.407 18.7248 18.8308 17.2718 19.6472 15.4736C20.4636 13.6755 20.6204 11.6472 20.09 9.74497C19.5596 7.84273 18.376 6.18817 16.747 5.07185C15.118 3.95554 13.1478 3.44885 11.1823 3.64077C9.21685 3.83269 7.38185 4.71094 5.99956 6.1213V4.2001C5.99956 4.04097 5.93635 3.88836 5.82382 3.77583C5.7113 3.66331 5.55869 3.6001 5.39956 3.6001C5.24043 3.6001 5.08782 3.66331 4.9753 3.77583C4.86277 3.88836 4.79956 4.04097 4.79956 4.2001V7.8001C4.79956 7.95923 4.86277 8.11184 4.9753 8.22436C5.08782 8.33688 5.24043 8.4001 5.39956 8.4001H8.99956C9.15869 8.4001 9.3113 8.33688 9.42382 8.22436C9.53635 8.11184 9.59956 7.95923 9.59956 7.8001C9.59956 7.64097 9.53635 7.48836 9.42382 7.37583C9.3113 7.26331 9.15869 7.2001 8.99956 7.2001H6.63316C7.30766 6.44405 8.13455 5.83932 9.05946 5.42568C9.98438 5.01203 10.9864 4.79883 11.9996 4.8001ZM11.9996 7.8001C11.9996 7.64097 11.9363 7.48836 11.8238 7.37583C11.7113 7.26331 11.5587 7.2001 11.3996 7.2001C11.2404 7.2001 11.0878 7.26331 10.9753 7.37583C10.8628 7.48836 10.7996 7.64097 10.7996 7.8001V12.6001C10.7996 12.7592 10.8628 12.9118 10.9753 13.0244C11.0878 13.1369 11.2404 13.2001 11.3996 13.2001H14.9996C15.1587 13.2001 15.3113 13.1369 15.4238 13.0244C15.5363 12.9118 15.5996 12.7592 15.5996 12.6001C15.5996 12.441 15.5363 12.2884 15.4238 12.1758C15.3113 12.0633 15.1587 12.0001 14.9996 12.0001H11.9996V7.8001Z" fill="#222222"/>
</svg>
