<svg width="28" height="28" viewBox="0 0 28 28" fill="none" xmlns="http://www.w3.org/2000/svg">
<rect width="28" height="28" rx="14" fill="#F5F5F5"/>
<g clip-path="url(#clip0_1460_1700)">
<path d="M11.5 9C11.5 9.66304 11.7634 10.2989 12.2322 10.7678C12.7011 11.2366 13.337 11.5 14 11.5C14.663 11.5 15.2989 11.2366 15.7678 10.7678C16.2366 10.2989 16.5 9.66304 16.5 9C16.5 8.33696 16.2366 7.70107 15.7678 7.23223C15.2989 6.76339 14.663 6.5 14 6.5C13.337 6.5 12.7011 6.76339 12.2322 7.23223C11.7634 7.70107 11.5 8.33696 11.5 9Z" stroke="black" stroke-width="1.08333" stroke-linecap="round" stroke-linejoin="round"/>
<path d="M9.69567 11.5H18.304C18.4992 11.5 18.6882 11.5684 18.838 11.6935C18.9879 11.8185 19.0891 11.9922 19.124 12.1842L20.4882 19.6842C20.51 19.8043 20.5052 19.9277 20.4741 20.0458C20.443 20.1638 20.3863 20.2736 20.3081 20.3673C20.2299 20.461 20.132 20.5364 20.0214 20.5882C19.9108 20.6399 19.7903 20.6667 19.6682 20.6667H8.33151C8.20943 20.6667 8.08883 20.6399 7.97826 20.5882C7.86768 20.5364 7.76982 20.461 7.6916 20.3673C7.61337 20.2736 7.5567 20.1638 7.52558 20.0458C7.49446 19.9277 7.48965 19.8043 7.51151 19.6842L8.87567 12.1842C8.91061 11.9922 9.01182 11.8185 9.16168 11.6935C9.31153 11.5684 9.50051 11.5 9.69567 11.5Z" stroke="black" stroke-width="1.08333" stroke-linecap="round" stroke-linejoin="round"/>
</g>
<defs>
<clipPath id="clip0_1460_1700">
<rect width="20" height="20" fill="white" transform="translate(4 4)"/>
</clipPath>
</defs>
</svg>
