<svg width="20" height="20" viewBox="0 0 20 20" fill="none" xmlns="http://www.w3.org/2000/svg">
<path d="M19 10.0001C19.003 11.7869 18.4715 13.5337 17.474 15.0161C16.6514 16.2431 15.5391 17.2484 14.2355 17.9433C12.9319 18.6382 11.4772 19.0011 10 19.0001C8.52279 19.0011 7.06808 18.6382 5.76451 17.9433C4.46093 17.2484 3.34865 16.2431 2.526 15.0161C1.74273 13.8485 1.2439 12.5137 1.06951 11.1186C0.895109 9.72344 1.05 8.30686 1.52175 6.98239C1.9935 5.65793 2.769 4.4624 3.78607 3.49167C4.80314 2.52093 6.0335 1.80198 7.37851 1.39245C8.72352 0.982921 10.1458 0.894206 11.5312 1.13342C12.9167 1.37263 14.2269 1.93311 15.3567 2.76993C16.4865 3.60675 17.4046 4.69664 18.0373 5.95221C18.67 7.20779 18.9997 8.59414 19 10.0001Z" stroke="#222222"/>
<path d="M3.16637 15.856L2.68637 15.714L2.60938 15.975L2.78637 16.182L3.16637 15.856ZM16.8344 15.856L17.2144 16.182L17.3914 15.975L17.3134 15.714L16.8344 15.856ZM7.00037 13.5H13.0004V12.5H7.00037V13.5ZM7.00037 12.5C6.03131 12.5002 5.08817 12.813 4.31112 13.3921C3.53408 13.9711 2.96362 14.7854 2.68637 15.714L3.64537 15.999C3.86123 15.2769 4.30429 14.6437 4.90872 14.1935C5.51315 13.7433 6.2467 13.5001 7.00037 13.5V12.5ZM10.0004 18.5C8.77364 18.5013 7.56123 18.2364 6.4468 17.7237C5.33237 17.2109 4.34246 16.4625 3.54537 15.53L2.78637 16.182C3.67743 17.2238 4.78381 18.0599 6.02924 18.6327C7.27468 19.2055 8.62953 19.5014 10.0004 19.5V18.5ZM13.0004 13.5C13.7542 13.5001 14.4878 13.7435 15.0923 14.1939C15.6967 14.6443 16.1397 15.2777 16.3554 16L17.3134 15.714C17.0361 14.7854 16.4667 13.9711 15.6896 13.3921C14.9126 12.813 13.9694 12.5002 13.0004 12.5V13.5ZM16.4554 15.53C15.6583 16.4625 14.6684 17.2109 13.5539 17.7237C12.4395 18.2364 11.2271 18.5013 10.0004 18.5V19.5C11.3712 19.5014 12.7261 19.2055 13.9715 18.6327C15.2169 18.0599 16.3233 17.2238 17.2144 16.182L16.4554 15.53Z" fill="#222222"/>
<circle cx="10" cy="7" r="3.5" stroke="#222222"/>
</svg>
